<mxfile host="app.diagrams.net" agent="Mozilla/5.0 (X11; Linux x86_64; rv:138.0) Gecko/20100101 Firefox/138.0" version="27.0.4">
  <diagram name="PÃ¡gina-1" id="KI8rUYZT-3B9xjkZgBFR">
    <mxGraphModel dx="1111" dy="483" grid="1" gridSize="10" guides="1" tooltips="1" connect="1" arrows="1" fold="1" page="1" pageScale="1" pageWidth="827" pageHeight="1169" math="0" shadow="0">
      <root>
        <mxCell id="0" />
        <mxCell id="1" parent="0" />
        <mxCell id="vId-wac5BMGmImnF2LuQ-1" value="calculadora" style="swimlane;fontStyle=1;align=center;verticalAlign=top;childLayout=stackLayout;horizontal=1;startSize=26;horizontalStack=0;resizeParent=1;resizeParentMax=0;resizeLast=0;collapsible=1;marginBottom=0;whiteSpace=wrap;html=1;" vertex="1" parent="1">
          <mxGeometry x="300" y="100" width="160" height="198" as="geometry" />
        </mxCell>
        <mxCell id="vId-wac5BMGmImnF2LuQ-2" value="&lt;div&gt;- num1:Int&lt;/div&gt;&lt;div&gt;- num2:Int&lt;/div&gt;&lt;div&gt;- op:Char&lt;/div&gt;" style="text;strokeColor=none;fillColor=none;align=left;verticalAlign=top;spacingLeft=4;spacingRight=4;overflow=hidden;rotatable=0;points=[[0,0.5],[1,0.5]];portConstraint=eastwest;whiteSpace=wrap;html=1;" vertex="1" parent="vId-wac5BMGmImnF2LuQ-1">
          <mxGeometry y="26" width="160" height="54" as="geometry" />
        </mxCell>
        <mxCell id="vId-wac5BMGmImnF2LuQ-3" value="" style="line;strokeWidth=1;fillColor=none;align=left;verticalAlign=middle;spacingTop=-1;spacingLeft=3;spacingRight=3;rotatable=0;labelPosition=right;points=[];portConstraint=eastwest;strokeColor=inherit;" vertex="1" parent="vId-wac5BMGmImnF2LuQ-1">
          <mxGeometry y="80" width="160" height="8" as="geometry" />
        </mxCell>
        <mxCell id="vId-wac5BMGmImnF2LuQ-4" value="&lt;div&gt;+ sumar ()&lt;/div&gt;&lt;div&gt;+ restar ()&lt;/div&gt;&lt;div&gt;+ multiplicar ()&lt;/div&gt;&lt;div&gt;+ division ()&lt;/div&gt;&lt;div&gt;+ calculadora(int, int, char)&lt;/div&gt;&lt;div&gt;+ operar&lt;/div&gt;" style="text;strokeColor=none;fillColor=none;align=left;verticalAlign=top;spacingLeft=4;spacingRight=4;overflow=hidden;rotatable=0;points=[[0,0.5],[1,0.5]];portConstraint=eastwest;whiteSpace=wrap;html=1;" vertex="1" parent="vId-wac5BMGmImnF2LuQ-1">
          <mxGeometry y="88" width="160" height="110" as="geometry" />
        </mxCell>
      </root>
    </mxGraphModel>
  </diagram>
</mxfile>
